<svg width="512" height="512" viewBox="0 0 512 512" style="color:#1C2033" xmlns="http://www.w3.org/2000/svg" class="h-full w-full"><rect width="512" height="512" x="0" y="0" rx="84" fill="transparent" stroke="transparent" stroke-width="0" stroke-opacity="100%" paint-order="stroke"></rect><svg width="190px" height="190px" viewBox="0 0 24 24" fill="#1C2033" x="161" y="161" role="img" style="display:inline-block;vertical-align:middle" xmlns="http://www.w3.org/2000/svg"><g fill="#1C2033"><path fill="currentColor" fill-rule="evenodd" d="M19.75 12a.75.75 0 0 0-.75-.75H5a.75.75 0 0 0 0 1.5h14a.75.75 0 0 0 .75-.75Zm0-5a.75.75 0 0 0-.75-.75H5a.75.75 0 0 0 0 1.5h14a.75.75 0 0 0 .75-.75Zm0 10a.75.75 0 0 0-.75-.75H5a.75.75 0 0 0 0 1.5h14a.75.75 0 0 0 .75-.75Z" clip-rule="evenodd"/></g></svg></svg>